# xmcd
#
# Track frame offsets:
#	183
#	17553
#	32830
#	47573
#	60638
#	74958
#	101105
#	113850
#	128053
#	143273
#	159500
#	178485
#
# Disc length: 2522 seconds
#
# Revision: 0
# Processed by: cddbd v1.5.2PL0 Copyright (c) Steve Scherf et al.
# Submitted via: dBpowerAMP V4.0
#
DISCID=aa09d80c
DTITLE=Billy Ocean - Love Really Hurts Without You
DYEAR=1900
DGENRE=
TTITLE0=On The Run
TTITLE1=Emotions In Motion
TTITLE2=Love Really Hurts Without You
TTITLE3=Whose Little Girl Are You
TTITLE4=Black As He´s Painted
TTITLE5=Wild Beautiful Woman
TTITLE6=What´s Gonna Happen To Our Love
TTITLE7=Light Up The World With Sunshine
TTITLE8=Can You Feel It
TTITLE9=Eye Of A Storm
TTITLE10=Hungry For Love
TTITLE11=Super Woman Super Lover
EXTD=
EXTT0=
EXTT1=
EXTT2=
EXTT3=
EXTT4=
EXTT5=
EXTT6=
EXTT7=
EXTT8=
EXTT9=
EXTT10=
EXTT11=
PLAYORDER=
